<?xml version="1.0" standalone="no"?>
<!DOCTYPE svg PUBLIC "-//W3C//DTD SVG 20010904//EN"
 "http://www.w3.org/TR/2001/REC-SVG-20010904/DTD/svg10.dtd">
<svg version="1.0" xmlns="http://www.w3.org/2000/svg"
 width="251.000000pt" height="251.000000pt" viewBox="0 0 251.000000 251.000000"
 preserveAspectRatio="xMidYMid meet">
<metadata>
Created by potrace 1.14, written by Peter Selinger 2001-2017
</metadata>
<g transform="translate(0.000000,251.000000) scale(0.100000,-0.100000)"
fill="#000000" stroke="none">
<path d="M1856 2355 c-118 -154 -118 -154 -145 -141 -32 17 -163 64 -194 70
-145 29 -183 33 -286 31 -64 -2 -126 -5 -137 -8 -12 -3 -39 -8 -59 -11 -64
-11 -216 -65 -285 -103 -36 -19 -95 -57 -132 -85 -71 -52 -206 -189 -235 -239
-10 -16 -21 -29 -25 -29 -4 0 -83 32 -177 70 -93 39 -172 70 -175 70 -4 0 44
-39 106 -86 62 -47 131 -100 153 -117 l41 -31 -33 -80 c-35 -89 -59 -175 -71
-251 -9 -64 -9 -247 0 -305 16 -95 20 -116 29 -133 5 -9 8 -17 5 -17 -2 0 8
-33 24 -74 48 -129 126 -253 222 -354 45 -48 146 -134 174 -150 18 -10 17 -15
-22 -107 -7 -16 -35 -83 -62 -147 -28 -65 -49 -118 -48 -118 2 0 25 28 52 62
26 35 51 65 54 68 3 3 32 40 65 84 33 43 65 80 71 83 7 2 25 -2 41 -10 155
-79 418 -114 612 -82 291 48 564 224 717 463 1 3 334 -132 359 -146 24 -13
-19 23 -155 128 -80 62 -144 117 -142 122 1 5 11 28 21 51 58 128 86 263 86
417 0 253 -60 441 -206 641 -59 80 -212 227 -267 254 -1 1 31 84 72 183 41
100 74 182 73 182 -1 0 -55 -70 -121 -155z m-386 -120 c36 -9 72 -18 81 -20
14 -3 60 -21 121 -47 l26 -12 -21 -31 c-12 -16 -60 -80 -107 -140 l-85 -111
-70 19 c-63 17 -194 24 -273 15 -21 -3 -29 9 -71 110 -44 103 -72 155 -58 107
6 -21 13 -71 23 -164 3 -30 6 -59 7 -64 2 -10 -3 -13 -82 -52 -72 -36 -105
-59 -168 -118 l-51 -50 -134 56 c-73 31 -146 60 -161 66 l-29 11 19 29 c37 60
135 160 208 216 127 95 266 156 435 190 85 17 304 12 390 -10z m475 -260 c162
-157 267 -364 296 -584 11 -80 8 -289 -5 -309 -3 -5 -8 -24 -11 -43 -8 -46
-13 -62 -47 -151 l-29 -78 -120 93 c-67 50 -130 99 -141 108 -21 16 -21 17 -3
90 18 72 24 225 11 267 -5 16 10 26 106 66 62 27 118 53 123 58 7 7 7 9 0 6
-10 -5 -49 -11 -167 -24 -29 -3 -59 -7 -65 -9 -7 -3 -32 33 -58 85 -26 49 -71
116 -103 151 -31 34 -57 65 -57 68 0 3 29 77 65 163 l65 156 29 -16 c16 -9 66
-53 111 -97z m-541 -109 c53 -16 67 -28 47 -40 -5 -4 -51 -61 -101 -127 l-93
-121 -54 128 c-29 71 -58 137 -64 147 -7 12 -6 19 3 22 49 16 190 12 262 -9z
m-354 -28 c0 -7 5 -42 10 -78 5 -36 11 -89 14 -118 3 -29 9 -64 12 -78 3 -13
2 -24 -4 -24 -10 0 -293 118 -301 125 -15 16 129 128 212 165 50 23 57 24 57
8z m666 -163 c46 -49 134 -199 123 -209 -4 -4 -92 -17 -218 -31 -30 -4 -62 -8
-73 -10 -10 -2 -18 -3 -18 -2 0 1 25 63 56 137 31 74 58 143 61 153 3 9 8 17
12 17 3 0 29 -25 57 -55z m-1213 -81 c112 -86 136 -108 128 -122 -26 -51 -42
-203 -31 -292 l7 -53 -46 -20 c-25 -10 -64 -27 -86 -37 -22 -10 -50 -21 -62
-24 -27 -9 -31 -26 -5 -22 9 2 44 7 77 10 33 4 79 9 103 12 39 4 43 3 52 -23
28 -77 76 -151 143 -220 l50 -51 -62 -149 c-34 -81 -65 -154 -70 -162 -18 -28
-169 108 -265 239 -181 245 -235 598 -136 890 27 81 49 130 58 130 4 0 69 -48
145 -106z m330 -254 l96 -75 -32 -15 c-18 -8 -59 -26 -92 -39 -33 -13 -84 -35
-113 -48 -30 -14 -56 -22 -59 -19 -14 14 -6 226 11 279 3 9 8 24 11 33 6 18 3
19 178 -116z m1041 -52 c3 -71 -11 -180 -29 -226 -3 -9 -46 18 -125 79 -66 51
-125 98 -130 104 -7 9 9 20 58 40 37 16 90 38 117 50 90 39 100 43 103 40 2
-2 5 -41 6 -87z m-908 -215 c-4 -10 -32 -80 -64 -155 l-56 -138 -39 38 c-46
44 -120 154 -136 201 -6 19 -10 35 -9 37 2 1 30 5 63 9 33 3 85 10 115 13 115
16 133 15 126 -5z m747 -222 c13 -13 -99 -107 -175 -147 -39 -20 -74 -32 -78
-28 -5 5 -11 38 -15 74 -4 36 -9 74 -11 85 -2 10 -6 47 -10 81 l-6 63 144 -60
c79 -33 147 -64 151 -68z m-398 -70 c31 -73 54 -136 50 -139 -3 -3 -49 -6
-103 -6 -102 0 -212 18 -212 36 0 18 193 259 201 251 4 -4 33 -68 64 -142z
m620 -16 c66 -27 126 -53 132 -58 25 -19 -113 -172 -233 -259 -110 -79 -230
-131 -406 -175 -13 -3 -84 -7 -158 -8 -155 -4 -253 12 -387 64 l-82 32 106
137 c58 75 107 139 109 141 2 2 36 -5 76 -15 67 -16 217 -22 273 -11 17 3 27
-12 63 -97 62 -147 63 -149 57 -96 -7 72 -15 142 -21 180 l-5 35 81 39 c52 25
103 60 147 101 66 61 69 63 98 51 17 -7 84 -34 150 -61z"/>
</g>
</svg>
